<?xml version="1.0" encoding="UTF-8"?>
<svg width="128px" height="128px" viewBox="0 0 128 128" version="1.1" xmlns="http://www.w3.org/2000/svg" xmlns:xlink="http://www.w3.org/1999/xlink">
    <title>Icon 128@1x</title>
    <g id="Icon-128" stroke="none" stroke-width="1" fill="none" fill-rule="evenodd">
        <rect id="Background" fill="#0055FF" transform="translate(64.000000, 64.000000) rotate(180.000000) translate(-64.000000, -64.000000) " x="1.42108547e-14" y="-7.10542736e-15" width="128" height="128" rx="10"></rect>
        <g id="Icon" transform="translate(20.000000, 20.000000)" fill="#FFFFFF">
            <path d="M88,36 L88,80.6551443 C88,84.4653494 84.30675,88 80.2807018,88 L7.71929825,88 C3.69325,88 0,84.4653494 0,80.6551443 L0,36 L88,36 Z M15,66 L15,80 L25,73 L15,66 Z M73,69 L33,69 L33,77 L73,77 L73,69 Z M15,44 L15,58 L25,51 L15,44 Z M73,47 L33,47 L33,55 L73,55 L73,47 Z" id="Rectangle-4" fill-rule="nonzero"></path>
            <g id="Visualizer" transform="translate(18.000000, 0.000000)">
                <polygon id="Fill-14-Copy-2" points="0 26 8 26 8 10 0 10"></polygon>
                <polygon id="Fill-15" points="15 26 23 26 23 0 15 0"></polygon>
                <polygon id="Fill-21" points="30 26 38 26 38 12 30 12"></polygon>
                <polygon id="Fill-22" points="45 26 53 26 53 18 45 18"></polygon>
            </g>
        </g>
    </g>
</svg>